# Blender v2.81 (sub 16) OBJ File: 'simpleplane.blend'
# www.blender.org
mtllib simpleplane.mtl
o Cube
v -4.778140 -0.959839 0.207192
v -4.922320 -0.710447 0.139469
v 1.748020 -0.963739 0.749729
v 1.837890 0.465849 0.586474
v 3.844400 -0.842720 0.530126
v 3.844400 -0.351069 0.405653
v -4.795157 -0.780246 0.215181
v -4.723519 -0.959795 0.214448
v -2.745897 -0.530300 0.482540
v -0.943535 -0.956766 0.716624
v -2.659544 -0.958141 0.488650
v -0.951089 0.464139 0.560653
v 1.337760 -1.938870 0.515734
v 0.252060 -1.937647 6.106591
v -0.139923 -1.937650 0.433283
v 1.338950 -1.937647 6.177401
v -0.219342 -1.844774 0.461285
v -0.847394 -1.069198 0.682726
v 1.565970 -1.078259 0.719367
v -0.677893 -1.078259 0.682935
v -0.847749 -1.069199 0.591666
v -0.219391 -1.844774 0.384694
v 1.201223 -1.937650 0.508338
v 1.615231 -0.967735 0.747870
v -0.002751 -1.937650 0.440960
v -0.777544 -0.957477 0.718651
v 1.249350 -1.829690 0.536181
v -0.091827 -1.829690 0.472885
v 1.387688 -1.825196 0.544212
v 1.694336 -1.085955 0.719111
v 1.387580 -1.825440 0.448419
v 1.693740 -1.087319 0.619950
v 1.338954 -2.054154 6.177397
v 1.334980 -2.054158 0.515824
v -0.076163 -2.054158 0.433283
v 0.315820 -2.054154 6.106594
v -3.415918 -0.792300 0.391659
v -4.605248 -0.813571 0.237860
v 1.791246 -0.241467 0.749676
v 3.844400 -0.614366 0.568798
v -3.429706 -0.652590 0.392179
v -4.638294 -0.704914 0.237939
v -0.947312 -0.208649 0.720211
v -4.850230 -0.806695 0.207192
v -4.548319 -0.959655 0.237724
v -4.684310 -0.540948 0.075009
v -3.395436 -0.958731 0.390886
v -3.490351 -0.298695 0.230327
v -3.947569 -0.853930 2.279895
v -4.465774 -0.860650 2.282418
v -3.949043 -0.714105 2.280910
v -4.476835 -0.748090 2.284415
v -2.659544 -0.999242 0.075438
v -4.778142 -1.000942 0.075438
v -3.396318 -0.999833 0.075438
v -4.548445 -1.000757 0.075438
v -4.723519 -1.000898 0.075438
v -3.919123 -1.305287 0.054095
v -4.233010 -1.305539 0.054095
v -4.723849 -1.305933 0.054095
v -4.798435 -1.305992 0.054095
v -4.338171 -1.956134 0.044621
v -4.541726 -1.923070 0.044621
v -4.860035 -1.871366 0.044621
v -4.908404 -1.863509 0.044621
v -4.778140 -0.959839 -0.207190
v -4.922320 -0.710447 -0.139467
v 1.748020 -0.963740 -0.749728
v 1.837890 0.465848 -0.586474
v 3.844400 -0.842721 -0.530125
v 3.844400 -0.351069 -0.405653
v -4.795157 -0.780247 -0.215180
v -4.723519 -0.959796 -0.214447
v -2.745897 -0.530301 -0.482539
v -0.943535 -0.956767 -0.716622
v -2.659544 -0.958142 -0.488648
v -0.951089 0.464138 -0.560653
v 1.337760 -1.938870 -0.515732
v 0.252060 -1.937653 -6.106589
v -0.139923 -1.937650 -0.433281
v 1.338950 -1.937653 -6.177399
v -0.219342 -1.844774 -0.461283
v -0.847394 -1.069199 -0.682725
v 1.565970 -1.078260 -0.719365
v -0.677893 -1.078260 -0.682933
v -0.847749 -1.069200 -0.591664
v -0.219391 -1.844774 -0.384692
v 1.201223 -1.937650 -0.508336
v 1.615231 -0.967735 -0.747869
v -0.002751 -1.937650 -0.440958
v -0.777544 -0.957478 -0.718649
v 1.249350 -1.829690 -0.536179
v -0.091827 -1.829690 -0.472883
v 1.387688 -1.825197 -0.544210
v 1.694336 -1.085956 -0.719110
v 1.387580 -1.825440 -0.448417
v 1.693740 -1.087320 -0.619948
v 1.338954 -2.054161 -6.177395
v 1.334980 -2.054158 -0.515822
v -0.076163 -2.054158 -0.433281
v 0.315820 -2.054161 -6.106592
v -4.922315 -0.612450 0.000001
v 1.865462 -1.016185 0.000000
v 1.807089 0.582279 -0.000000
v -4.778143 -1.000943 0.000001
v 3.844397 -0.883821 0.000000
v 3.844397 -0.351069 0.000000
v -0.977087 0.580569 -0.000000
v -0.946560 -1.024228 0.000001
v 1.399829 -1.938871 0.000001
v -0.139923 -1.937650 0.000001
v -0.219640 -1.844774 0.000001
v -3.415918 -0.792300 -0.391657
v -0.850058 -1.124046 0.000001
v -4.605248 -0.813571 -0.237858
v 1.791246 -0.241468 -0.749676
v 3.844400 -0.614367 -0.568798
v -3.429706 -0.652591 -0.392178
v -4.638294 -0.704914 -0.237937
v -4.850229 -0.806696 0.000001
v -0.947312 -0.208649 -0.720210
v -4.850230 -0.806695 -0.207190
v -4.685864 -0.540948 0.000001
v 1.449152 -1.826576 0.000001
v -4.860052 -1.871363 0.000001
v 1.812435 -1.136912 0.000001
v -4.548319 -0.959655 -0.237722
v -4.684310 -0.540948 -0.075007
v -3.499722 -0.182264 0.000000
v -4.908503 -1.863496 0.000001
v -3.395436 -0.958731 -0.390884
v -3.490351 -0.298695 -0.230327
v -0.076163 -2.054158 0.000001
v 1.397049 -2.054158 0.000001
v -3.947569 -0.853932 -2.279893
v -4.465774 -0.860653 -2.282417
v -3.949043 -0.714107 -2.280909
v -4.476835 -0.748093 -2.284414
v -2.659544 -1.025603 0.000001
v -2.659544 -0.999242 -0.075436
v -4.778142 -1.000942 -0.075436
v -3.396318 -0.999833 -0.075436
v -4.548445 -1.000757 -0.075436
v -4.723519 -1.000898 -0.075436
v -4.723874 -1.000908 0.000001
v -4.798587 -1.305997 0.000001
v -3.919123 -1.305287 0.000001
v -3.919123 -1.305287 -0.054094
v -4.233010 -1.305539 -0.054094
v -4.723849 -1.305933 -0.054094
v -4.798435 -1.305992 -0.054094
v -4.541784 -1.923060 0.000001
v -4.338171 -1.956134 0.000001
v -4.338171 -1.956134 -0.044618
v -4.541726 -1.923070 -0.044618
v -4.860035 -1.871366 -0.044618
v -4.908404 -1.863509 -0.044618
vt 0.645755 0.599765
vt 0.641672 0.599765
vt 0.750000 0.599765
vt 0.750000 0.599765
vt 0.625000 0.741361
vt 0.625000 0.609604
vt 0.625000 0.613192
vt 0.625000 0.737033
vt 0.750000 0.750000
vt 0.642234 0.750000
vt 0.647007 0.750000
vt 0.750000 0.750000
vt 0.645755 0.599765
vt 0.641672 0.599765
vt 0.625000 0.741361
vt 0.625000 0.737033
vt 0.625000 0.613192
vt 0.625000 0.609604
vt 0.647007 0.750000
vt 0.642234 0.750000
vt 0.000000 0.000000
vt 0.000000 0.000000
vt 0.000000 0.000000
vt 0.000000 0.000000
vt 0.250000 0.599765
vt 0.375000 0.599765
vt 0.375000 0.750000
vt 0.250000 0.750000
vt 0.500000 0.599765
vt 0.504755 0.750000
vt 0.500000 0.375000
vt 0.625000 0.375000
vt 0.625000 0.420512
vt 0.625000 0.500000
vt 0.500000 0.500000
vt 0.375000 0.750000
vt 0.250000 0.750000
vt 0.498555 0.750000
vt 0.500000 0.535974
vt 0.550293 0.535974
vt 0.625000 0.535974
vt 0.625000 0.555120
vt 0.500000 0.553546
vt 0.250000 0.535974
vt 0.375000 0.535974
vt 0.625000 0.599765
vt 0.750000 0.599765
vt 0.750000 0.599765
vt 0.625000 0.599765
vt 0.750000 0.750000
vt 0.625000 0.750000
vt 0.625000 0.750000
vt 0.625000 0.599765
vt 0.750000 0.599765
vt 0.625000 0.599765
vt 0.725876 0.535974
vt 0.730703 0.555156
vt 0.750000 0.750000
vt 0.625000 0.750000
vt 0.625000 0.875000
vt 0.375000 0.875000
vt 0.625000 0.599765
vt 0.625000 0.613737
vt 0.625000 0.608994
vt 0.625000 0.742034
vt 0.625000 0.736375
vt 0.625000 0.750000
vt 0.625000 0.750000
vt 0.750000 0.750000
vt 0.625000 0.750000
vt 0.000000 0.000000
vt 0.000000 0.000000
vt 0.750000 0.750000
vt 0.000000 0.000000
vt 0.000000 0.000000
vt 0.000000 0.000000
vt 0.000000 0.000000
vt 0.000000 0.000000
vt 0.000000 0.000000
vt 0.375000 0.375000
vt 0.375000 0.500000
vt 0.500000 0.501554
vt 0.500000 0.505979
vt 0.375000 0.505979
vt 0.625000 0.501421
vt 0.250000 0.500000
vt 0.250000 0.505979
vt 0.704488 0.500000
vt 0.705878 0.501422
vt 0.545910 0.505979
vt 0.550293 0.535974
vt 0.545910 0.505979
vt 0.625000 0.505979
vt 0.710334 0.505979
vt 0.500000 0.505979
vt 0.500000 0.535974
vt 0.750000 0.555163
vt 0.750000 0.501110
vt 0.750000 0.501110
vt 0.705878 0.501422
vt 0.725876 0.535974
vt 0.730703 0.555156
vt 0.710334 0.505979
vt 0.750000 0.500000
vt 0.705878 0.501422
vt 0.710334 0.505979
vt 0.750000 0.555163
vt 0.730703 0.555156
vt 0.750000 0.555163
vt 0.725876 0.535974
vt 0.750000 0.501110
vt 0.750000 0.505979
vt 0.750000 0.535974
vt 0.375000 0.750000
vt 0.375000 0.599765
vt 0.504755 0.750000
vt 0.500000 0.599765
vt 0.500000 0.500000
vt 0.625000 0.500000
vt 0.625000 0.420512
vt 0.375000 0.750000
vt 0.498555 0.750000
vt 0.500000 0.535974
vt 0.500000 0.553546
vt 0.625000 0.555120
vt 0.625000 0.535974
vt 0.550293 0.535974
vt 0.375000 0.535974
vt 0.625000 0.599765
vt 0.625000 0.599765
vt 0.625000 0.750000
vt 0.625000 0.750000
vt 0.625000 0.599765
vt 0.625000 0.599765
vt 0.730703 0.555156
vt 0.725876 0.535974
vt 0.625000 0.750000
vt 0.625000 0.608994
vt 0.625000 0.613737
vt 0.625000 0.599765
vt 0.625000 0.742034
vt 0.625000 0.750000
vt 0.625000 0.750000
vt 0.625000 0.736375
vt 0.625000 0.750000
vt 0.000000 0.000000
vt 0.000000 0.000000
vt 0.000000 0.000000
vt 0.000000 0.000000
vt 0.000000 0.000000
vt 0.000000 0.000000
vt 0.000000 0.000000
vt 0.000000 0.000000
vt 0.375000 0.500000
vt 0.375000 0.505979
vt 0.500000 0.505979
vt 0.500000 0.501554
vt 0.625000 0.501421
vt 0.705878 0.501422
vt 0.704488 0.500000
vt 0.545910 0.505979
vt 0.545910 0.505979
vt 0.550293 0.535974
vt 0.625000 0.505979
vt 0.710334 0.505979
vt 0.500000 0.505979
vt 0.500000 0.535974
vt 0.705878 0.501422
vt 0.730703 0.555156
vt 0.725876 0.535974
vt 0.710334 0.505979
vt 0.710334 0.505979
vt 0.705878 0.501422
vt 0.730703 0.555156
vt 0.725876 0.535974
vn -0.7621 -0.6464 0.0383
vn -0.0269 -0.2576 0.9659
vn 0.8843 -0.4350 0.1699
vn -0.7621 -0.6464 -0.0383
vn -0.0269 -0.2576 -0.9659
vn 0.8843 -0.4350 -0.1699
vn -0.0000 -0.0000 -1.0000
vn -0.0015 0.9800 0.1990
vn -0.0085 0.2280 0.9736
vn -0.9285 -0.3694 0.0367
vn 0.3990 0.9121 0.0946
vn 0.1732 0.3064 0.9360
vn -0.1299 -0.0149 0.9914
vn -0.2937 0.9134 0.2820
vn -0.8772 -0.4801 -0.0000
vn 0.8651 -0.4713 0.1718
vn -0.7222 -0.6888 0.0631
vn -0.0066 -0.9937 0.1121
vn 0.0661 -0.9947 0.0788
vn 1.0000 -0.0000 -0.0000
vn -0.0315 -0.2983 0.9539
vn -0.7594 -0.6506 0.0003
vn -0.7768 -0.6297 0.0019
vn -0.0310 -0.2240 0.9741
vn -0.0142 -0.2704 0.9627
vn -0.0493 -0.2751 0.9601
vn 0.9217 -0.3727 0.1078
vn 0.9237 -0.3831 -0.0002
vn 0.0000 -1.0000 0.0000
vn 0.9926 -0.0239 0.1194
vn 0.9999 -0.0120 -0.0005
vn -0.0670 -0.0183 0.9976
vn -0.8756 -0.4792 0.0605
vn 0.0005 1.0000 -0.0000
vn -0.1911 0.2823 0.9401
vn -0.8754 -0.4651 -0.1315
vn -0.2807 0.5622 0.7779
vn -0.1242 -0.0558 0.9907
vn -0.3751 0.8421 0.3875
vn -0.0185 -0.9567 0.2905
vn -0.1706 0.4981 0.8502
vn -0.0115 -0.0022 0.9999
vn -0.2506 0.9015 0.3527
vn 0.0187 -0.9995 -0.0258
vn -0.0105 -0.9855 0.1696
vn -0.1295 -0.0350 0.9910
vn 0.0933 -0.0446 0.9946
vn 0.0062 -0.0116 0.9999
vn -0.0515 0.9984 0.0219
vn -0.9783 -0.1957 0.0676
vn 0.9617 0.0510 0.2693
vn -0.1306 -0.0079 0.9914
vn -0.1284 -0.0500 0.9905
vn -0.0103 -0.9937 0.1113
vn -0.9712 0.2380 0.0038
vn 0.0001 -0.0698 0.9976
vn -0.0167 -0.9646 0.2632
vn 0.0007 -1.0000 0.0001
vn -0.0011 -0.0166 0.9999
vn 0.8408 -0.5413 0.0000
vn -0.0010 -0.0156 0.9999
vn 0.2206 -0.9558 0.1945
vn -0.1603 -0.9871 0.0000
vn -0.0009 -0.0144 0.9999
vn -0.9811 0.1935 0.0025
vn -0.0015 0.9800 -0.1990
vn -0.0085 0.2280 -0.9736
vn -0.9285 -0.3694 -0.0367
vn 0.3990 0.9121 -0.0946
vn 0.1732 0.3064 -0.9360
vn -0.1299 -0.0149 -0.9914
vn -0.2937 0.9134 -0.2820
vn 0.8651 -0.4713 -0.1718
vn -0.7222 -0.6888 -0.0631
vn -0.0066 -0.9937 -0.1121
vn 0.0661 -0.9947 -0.0788
vn -0.0315 -0.2983 -0.9539
vn -0.7594 -0.6506 -0.0003
vn -0.7768 -0.6297 -0.0019
vn -0.0310 -0.2240 -0.9741
vn -0.0142 -0.2704 -0.9627
vn -0.0493 -0.2751 -0.9601
vn 0.9217 -0.3727 -0.1078
vn 0.9237 -0.3831 0.0002
vn 0.9926 -0.0239 -0.1194
vn 0.9999 -0.0120 0.0005
vn -0.0670 -0.0183 -0.9976
vn -0.8756 -0.4792 -0.0605
vn -0.1911 0.2823 -0.9401
vn -0.8754 -0.4651 0.1315
vn -0.2807 0.5622 -0.7779
vn -0.1242 -0.0558 -0.9907
vn -0.3751 0.8421 -0.3875
vn -0.0185 -0.9567 -0.2905
vn -0.1706 0.4981 -0.8502
vn -0.0115 -0.0022 -0.9999
vn -0.2506 0.9015 -0.3527
vn 0.0187 -0.9995 0.0258
vn -0.0105 -0.9855 -0.1696
vn -0.1295 -0.0350 -0.9910
vn 0.0933 -0.0447 -0.9946
vn 0.0062 -0.0116 -0.9999
vn -0.0515 0.9984 -0.0219
vn -0.9783 -0.1957 -0.0676
vn 0.9617 0.0510 -0.2693
vn -0.1306 -0.0079 -0.9914
vn -0.1284 -0.0500 -0.9905
vn -0.0103 -0.9937 -0.1113
vn -0.9712 0.2380 -0.0038
vn 0.0001 -0.0698 -0.9976
vn -0.0167 -0.9646 -0.2632
vn 0.0007 -1.0000 -0.0001
vn -0.0011 -0.0166 -0.9999
vn -0.0010 -0.0156 -0.9999
vn 0.2206 -0.9558 -0.1945
vn -0.0009 -0.0144 -0.9999
vn -0.9811 0.1935 -0.0025
usemtl whit
s off
f 22/1/1 21/2/1 114/3/1 112/4/1
f 19/5/2 20/6/2 28/7/2 27/8/2
f 126/9/3 32/10/3 31/11/3 124/12/3
f 87/13/4 112/4/4 114/3/4 86/14/4
f 84/15/5 92/16/5 93/17/5 85/18/5
f 126/9/6 124/12/6 96/19/6 97/20/6
f 111/21/7 110/22/7 134/23/7 133/24/7
usemtl red
f 108/25/8 12/26/8 4/27/8 104/28/8
f 12/26/9 43/29/9 39/30/9 4/27/9
f 120/31/10 105/32/10 54/33/10 1/34/10 44/35/10
f 104/28/11 4/27/11 6/36/11 107/37/11
f 4/27/12 39/30/12 40/38/12 6/36/12
f 41/39/13 37/40/13 47/41/13 11/42/13 9/43/13
f 129/44/14 48/45/14 12/26/14 108/25/14
f 15/46/15 111/47/15 133/48/15 35/49/15
f 103/50/16 3/51/16 30/52/16 32/10/16 126/9/16
f 10/53/17 109/54/17 114/3/17 21/2/17 18/55/17
f 47/41/18 55/56/18 53/57/18 11/42/18
f 3/51/19 103/50/19 106/58/19 5/59/19
f 6/36/20 40/38/20 5/59/20 106/60/20 107/61/20
f 10/53/21 18/55/21 17/62/21 15/46/21 25/63/21 28/7/21 20/6/21 26/64/21
f 17/62/22 22/1/22 112/4/22 111/47/22 15/46/22
f 18/55/23 21/2/23 22/1/23 17/62/23
f 24/65/24 19/5/24 27/8/24 23/66/24 13/67/24 29/68/24 30/52/24 3/51/24
f 26/64/25 20/6/25 19/5/25 24/65/25
f 27/8/26 28/7/26 25/63/26 23/66/26
f 124/12/27 31/11/27 29/68/27 13/67/27 110/69/27
f 31/11/28 32/10/28 30/52/28 29/68/28
f 34/70/29 33/71/29 36/72/29 35/49/29 133/48/29 134/73/29
f 110/69/30 13/67/30 34/70/30 134/73/30
f 13/74/31 16/75/31 33/71/31 34/76/31
f 16/75/32 14/77/32 36/72/32 33/71/32
f 14/77/33 15/78/33 35/79/33 36/72/33
f 16/75/34 13/67/34 23/66/34 25/63/34 15/78/34 14/77/34
f 48/45/35 41/39/35 9/43/35 43/29/35 12/26/35
f 102/80/36 120/31/36 44/35/36 2/81/36
f 2/81/37 44/35/37 7/82/37 42/83/37 46/84/37
f 44/35/38 1/34/38 8/85/38 7/82/38
f 102/86/39 2/81/39 46/84/39 123/87/39
f 1/34/40 54/88/40 57/89/40 8/85/40
f 46/84/41 42/83/41 41/39/41 48/45/41
f 39/30/42 43/29/42 10/53/42 26/64/42 24/65/42 3/51/42
f 123/87/43 46/84/43 48/45/43 129/44/43
f 38/90/44 37/40/44 49/91/44 50/92/44
f 45/93/45 56/94/45 55/56/45 47/41/45
f 37/40/46 38/90/46 45/93/46 47/41/46
f 40/38/47 39/30/47 3/51/47 5/59/47
f 52/95/48 50/92/48 49/91/48 51/96/48
f 41/39/49 42/83/49 52/95/49 51/96/49
f 42/83/50 38/90/50 50/92/50 52/95/50
f 37/40/51 41/39/51 51/96/51 49/91/51
f 9/43/52 11/42/52 10/53/52 43/29/52
f 7/82/53 8/85/53 45/93/53 38/90/53 42/83/53
f 11/42/54 53/57/54 139/97/54 109/54/54 10/53/54
f 57/89/55 145/98/55 146/99/55 61/100/55
f 53/57/56 55/56/56 59/101/56 58/102/56
f 56/94/56 57/89/56 61/100/56 60/103/56
f 8/85/57 57/89/57 56/94/57 45/93/57
f 145/98/58 57/89/58 54/88/58 105/104/58
f 60/103/59 61/100/59 65/105/59 64/106/59
f 147/107/60 58/102/60 62/108/60 153/109/60
f 59/101/61 60/103/61 64/106/61 63/110/61
f 139/97/62 53/57/62 58/102/62 147/107/62
f 55/56/56 56/94/56 60/103/56 59/101/56
f 64/106/63 65/105/63 130/111/63 125/112/63
f 62/108/63 63/110/63 152/113/63 153/109/63
f 63/110/63 64/106/63 125/112/63 152/113/63
f 58/102/64 59/101/64 63/110/64 62/108/64
f 61/100/65 146/99/65 130/111/65 65/105/65
f 108/25/66 104/28/66 69/114/66 77/115/66
f 77/115/67 69/114/67 116/116/67 121/117/67
f 120/31/68 122/118/68 66/119/68 141/120/68 105/32/68
f 104/28/69 107/37/69 71/121/69 69/114/69
f 69/114/70 71/121/70 117/122/70 116/116/70
f 118/123/71 74/124/71 76/125/71 131/126/71 113/127/71
f 129/44/72 108/25/72 77/115/72 132/128/72
f 80/129/15 100/130/15 133/48/15 111/47/15
f 103/50/73 126/9/73 97/20/73 95/131/73 68/132/73
f 75/133/74 83/134/74 86/14/74 114/3/74 109/54/74
f 131/126/75 76/125/75 140/135/75 142/136/75
f 68/132/76 70/137/76 106/58/76 103/50/76
f 71/121/20 107/61/20 106/60/20 70/137/20 117/122/20
f 75/133/77 91/138/77 85/18/77 93/17/77 90/139/77 80/129/77 82/140/77 83/134/77
f 82/140/78 80/129/78 111/47/78 112/4/78 87/13/78
f 83/134/79 82/140/79 87/13/79 86/14/79
f 89/141/80 68/132/80 95/131/80 94/142/80 78/143/80 88/144/80 92/16/80 84/15/80
f 91/138/81 89/141/81 84/15/81 85/18/81
f 92/16/82 88/144/82 90/139/82 93/17/82
f 124/12/83 110/69/83 78/143/83 94/142/83 96/19/83
f 96/19/84 94/142/84 95/131/84 97/20/84
f 99/145/29 134/73/29 133/48/29 100/130/29 101/146/29 98/147/29
f 110/69/85 134/73/85 99/145/85 78/143/85
f 78/148/86 99/149/86 98/147/86 81/150/86
f 81/150/87 98/147/87 101/146/87 79/151/87
f 79/151/88 101/146/88 100/152/88 80/153/88
f 81/150/34 79/151/34 80/153/34 90/139/34 88/144/34 78/143/34
f 132/128/89 77/115/89 121/117/89 74/124/89 118/123/89
f 102/80/90 67/154/90 122/118/90 120/31/90
f 67/154/91 128/155/91 119/156/91 72/157/91 122/118/91
f 122/118/92 72/157/92 73/158/92 66/119/92
f 102/86/93 123/87/93 128/155/93 67/154/93
f 66/119/94 73/158/94 144/159/94 141/160/94
f 128/155/95 132/128/95 118/123/95 119/156/95
f 116/116/96 68/132/96 89/141/96 91/138/96 75/133/96 121/117/96
f 123/87/97 129/44/97 132/128/97 128/155/97
f 115/161/98 136/162/98 135/163/98 113/127/98
f 127/164/99 131/126/99 142/136/99 143/165/99
f 113/127/100 131/126/100 127/164/100 115/161/100
f 117/122/101 70/137/101 68/132/101 116/116/101
f 138/166/102 137/167/102 135/163/102 136/162/102
f 118/123/103 137/167/103 138/166/103 119/156/103
f 119/156/104 138/166/104 136/162/104 115/161/104
f 113/127/105 135/163/105 137/167/105 118/123/105
f 74/124/106 121/117/106 75/133/106 76/125/106
f 72/157/107 119/156/107 115/161/107 127/164/107 73/158/107
f 76/125/108 75/133/108 109/54/108 139/97/108 140/135/108
f 144/159/109 151/168/109 146/99/109 145/98/109
f 140/135/110 148/169/110 149/170/110 142/136/110
f 143/165/110 150/171/110 151/168/110 144/159/110
f 73/158/111 127/164/111 143/165/111 144/159/111
f 145/98/112 105/104/112 141/160/112 144/159/112
f 150/171/113 156/172/113 157/173/113 151/168/113
f 147/107/60 153/109/60 154/174/60 148/169/60
f 149/170/114 155/175/114 156/172/114 150/171/114
f 139/97/115 147/107/115 148/169/115 140/135/115
f 142/136/110 149/170/110 150/171/110 143/165/110
f 156/172/63 125/112/63 130/111/63 157/173/63
f 154/174/63 153/109/63 152/113/63 155/175/63
f 155/175/63 152/113/63 125/112/63 156/172/63
f 148/169/116 154/174/116 155/175/116 149/170/116
f 151/168/117 157/173/117 130/111/117 146/99/117
